<?xml version="1.0" encoding="UTF-8" ?>
<svg version="1.1" width="1500" height="500" xmlns="http://www.w3.org/2000/svg" shape-rendering="crispEdges">
<rect x="930" y="69" width="39" height="275" fill="#D8403F" />
<rect x="114" y="71" width="136" height="74" fill="#D8403F" />
<rect x="920" y="74" width="10" height="337" fill="#D8403F" />
<rect x="969" y="74" width="11" height="87" fill="#D8403F" />
<rect x="98" y="76" width="16" height="89" fill="#D8403F" />
<rect x="250" y="76" width="10" height="69" fill="#D8403F" />
<rect x="914" y="79" width="6" height="342" fill="#D8403F" />
<rect x="980" y="79" width="16" height="82" fill="#D8403F" />
<rect x="88" y="81" width="10" height="104" fill="#D8403F" />
<rect x="260" y="81" width="6" height="64" fill="#D8403F" />
<rect x="621" y="84" width="28" height="143" fill="#D8403F" />
<rect x="909" y="84" width="5" height="337" fill="#D8403F" />
<rect x="996" y="84" width="21" height="82" fill="#D8403F" />
<rect x="1246" y="84" width="28" height="123" fill="#D8403F" />
<rect x="77" y="86" width="11" height="236" fill="#D8403F" />
<rect x="266" y="86" width="5" height="54" fill="#D8403F" />
<rect x="610" y="88" width="11" height="119" fill="#D8403F" />
<rect x="649" y="88" width="11" height="170" fill="#D8403F" />
<rect x="1017" y="89" width="22" height="83" fill="#D8403F" />
<rect x="1236" y="89" width="10" height="179" fill="#D8403F" />
<rect x="1274" y="89" width="10" height="123" fill="#D8403F" />
<rect x="72" y="91" width="5" height="231" fill="#D8403F" />
<rect x="271" y="91" width="5" height="44" fill="#D8403F" />
<rect x="371" y="91" width="131" height="74" fill="#D8403F" />
<rect x="604" y="93" width="6" height="98" fill="#D8403F" />
<rect x="660" y="93" width="6" height="324" fill="#D8403F" />
<rect x="904" y="95" width="5" height="331" fill="#D8403F" />
<rect x="1039" y="95" width="22" height="179" fill="#D8403F" />
<rect x="1230" y="95" width="6" height="270" fill="#D8403F" />
<rect x="1284" y="95" width="6" height="133" fill="#D8403F" />
<rect x="68" y="96" width="4" height="221" fill="#D8403F" />
<rect x="355" y="96" width="16" height="279" fill="#D8403F" />
<rect x="502" y="96" width="11" height="64" fill="#D8403F" />
<rect x="598" y="98" width="6" height="78" fill="#D8403F" />
<rect x="666" y="98" width="6" height="319" fill="#D8403F" />
<rect x="808" y="98" width="29" height="109" fill="#D8403F" />
<rect x="1061" y="100" width="11" height="168" fill="#D8403F" />
<rect x="1225" y="100" width="5" height="265" fill="#D8403F" />
<rect x="1290" y="100" width="6" height="137" fill="#D8403F" />
<rect x="62" y="101" width="6" height="216" fill="#D8403F" />
<rect x="276" y="101" width="6" height="24" fill="#D8403F" />
<rect x="344" y="101" width="11" height="274" fill="#D8403F" />
<rect x="513" y="101" width="5" height="54" fill="#D8403F" />
<rect x="57" y="105" width="5" height="206" fill="#D8403F" />
<rect x="339" y="105" width="5" height="265" fill="#D8403F" />
<rect x="518" y="105" width="5" height="44" fill="#D8403F" />
<rect x="796" y="105" width="12" height="131" fill="#D8403F" />
<rect x="837" y="105" width="11" height="81" fill="#D8403F" />
<rect x="898" y="105" width="6" height="321" fill="#D8403F" />
<rect x="1072" y="105" width="10" height="152" fill="#D8403F" />
<rect x="1296" y="105" width="5" height="143" fill="#D8403F" />
<rect x="592" y="109" width="6" height="51" fill="#D8403F" />
<rect x="672" y="109" width="5" height="301" fill="#D8403F" />
<rect x="792" y="109" width="4" height="144" fill="#D8403F" />
<rect x="848" y="109" width="6" height="72" fill="#D8403F" />
<rect x="893" y="109" width="5" height="317" fill="#D8403F" />
<rect x="1082" y="109" width="11" height="133" fill="#D8403F" />
<rect x="1220" y="109" width="5" height="256" fill="#D8403F" />
<rect x="1301" y="109" width="5" height="144" fill="#D8403F" />
<rect x="52" y="110" width="5" height="197" fill="#D8403F" />
<rect x="334" y="110" width="5" height="260" fill="#D8403F" />
<rect x="786" y="114" width="6" height="144" fill="#D8403F" />
<rect x="854" y="114" width="6" height="57" fill="#D8403F" />
<rect x="1093" y="114" width="5" height="119" fill="#D8403F" />
<rect x="1306" y="114" width="6" height="149" fill="#D8403F" />
<rect x="46" y="115" width="6" height="192" fill="#D8403F" />
<rect x="523" y="115" width="5" height="25" fill="#D8403F" />
<rect x="888" y="120" width="5" height="31" fill="#D8403F" />
<rect x="1098" y="120" width="7" height="102" fill="#D8403F" />
<rect x="1214" y="120" width="6" height="245" fill="#D8403F" />
<rect x="41" y="121" width="5" height="181" fill="#D8403F" />
<rect x="328" y="121" width="6" height="245" fill="#D8403F" />
<rect x="781" y="125" width="5" height="142" fill="#D8403F" />
<rect x="860" y="125" width="6" height="35" fill="#D8403F" />
<rect x="1312" y="126" width="5" height="148" fill="#D8403F" />
<rect x="36" y="130" width="5" height="167" fill="#D8403F" />
<rect x="1105" y="130" width="6" height="82" fill="#D8403F" />
<rect x="1208" y="130" width="6" height="240" fill="#D8403F" />
<rect x="1317" y="130" width="4" height="230" fill="#D8403F" />
<rect x="677" y="134" width="7" height="276" fill="#D8403F" />
<rect x="774" y="134" width="7" height="139" fill="#D8403F" />
<rect x="30" y="135" width="6" height="157" fill="#D8403F" />
<rect x="1321" y="135" width="7" height="225" fill="#D8403F" />
<rect x="25" y="140" width="5" height="142" fill="#D8403F" />
<rect x="769" y="140" width="5" height="139" fill="#D8403F" />
<rect x="1111" y="140" width="5" height="62" fill="#D8403F" />
<rect x="114" y="145" width="27" height="4" fill="#D8403F" />
<rect x="224" y="145" width="31" height="4" fill="#D8403F" />
<rect x="1203" y="146" width="5" height="239" fill="#D8403F" />
<rect x="1328" y="146" width="5" height="209" fill="#D8403F" />
<rect x="20" y="149" width="5" height="128" fill="#D8403F" />
<rect x="114" y="149" width="11" height="6" fill="#D8403F" />
<rect x="684" y="151" width="5" height="255" fill="#D8403F" />
<rect x="763" y="151" width="6" height="128" fill="#D8403F" />
<rect x="1333" y="151" width="5" height="204" fill="#D8403F" />
<rect x="114" y="155" width="5" height="5" fill="#D8403F" />
<rect x="1198" y="155" width="5" height="252" fill="#D8403F" />
<rect x="15" y="160" width="5" height="108" fill="#D8403F" />
<rect x="757" y="160" width="6" height="128" fill="#D8403F" />
<rect x="969" y="161" width="6" height="204" fill="#D8403F" />
<rect x="990" y="161" width="6" height="5" fill="#D8403F" />
<rect x="1338" y="161" width="6" height="194" fill="#D8403F" />
<rect x="98" y="165" width="11" height="4" fill="#D8403F" />
<rect x="371" y="165" width="37" height="103" fill="#D8403F" />
<rect x="689" y="165" width="6" height="236" fill="#D8403F" />
<rect x="751" y="165" width="6" height="129" fill="#D8403F" />
<rect x="1012" y="166" width="5" height="6" fill="#D8403F" />
<rect x="1344" y="166" width="5" height="189" fill="#D8403F" />
<rect x="98" y="169" width="6" height="10" fill="#D8403F" />
<rect x="1034" y="172" width="5" height="116" fill="#D8403F" />
<rect x="1192" y="172" width="6" height="244" fill="#D8403F" />
<rect x="12" y="174" width="3" height="84" fill="#D8403F" />
<rect x="746" y="176" width="5" height="123" fill="#D8403F" />
<rect x="1028" y="176" width="6" height="112" fill="#D8403F" />
<rect x="1349" y="176" width="6" height="179" fill="#D8403F" />
<rect x="9" y="178" width="3" height="77" fill="#D8403F" />
<rect x="695" y="181" width="6" height="210" fill="#D8403F" />
<rect x="740" y="181" width="6" height="128" fill="#D8403F" />
<rect x="1187" y="181" width="5" height="240" fill="#D8403F" />
<rect x="88" y="185" width="5" height="14" fill="#D8403F" />
<rect x="734" y="186" width="6" height="128" fill="#D8403F" />
<rect x="837" y="186" width="6" height="9" fill="#D8403F" />
<rect x="1023" y="186" width="5" height="107" fill="#D8403F" />
<rect x="1355" y="186" width="5" height="169" fill="#D8403F" />
<rect x="8" y="188" width="1" height="62" fill="#D8403F" />
<rect x="7" y="191" width="1" height="57" fill="#D8403F" />
<rect x="701" y="191" width="6" height="179" fill="#D8403F" />
<rect x="1360" y="192" width="6" height="163" fill="#D8403F" />
<rect x="6" y="194" width="1" height="52" fill="#D8403F" />
<rect x="408" y="194" width="99" height="74" fill="#D8403F" />
<rect x="707" y="195" width="4" height="160" fill="#D8403F" />
<rect x="728" y="195" width="6" height="129" fill="#D8403F" />
<rect x="1017" y="197" width="6" height="219" fill="#D8403F" />
<rect x="1181" y="197" width="6" height="229" fill="#D8403F" />
<rect x="5" y="199" width="1" height="44" fill="#D8403F" />
<rect x="507" y="199" width="11" height="64" fill="#D8403F" />
<rect x="711" y="201" width="6" height="144" fill="#D8403F" />
<rect x="723" y="201" width="5" height="128" fill="#D8403F" />
<rect x="1175" y="202" width="6" height="224" fill="#D8403F" />
<rect x="1366" y="202" width="5" height="158" fill="#D8403F" />
<rect x="518" y="204" width="5" height="54" fill="#D8403F" />
<rect x="4" y="207" width="1" height="33" fill="#D8403F" />
<rect x="615" y="207" width="6" height="9" fill="#D8403F" />
<rect x="717" y="207" width="6" height="127" fill="#D8403F" />
<rect x="808" y="207" width="23" height="5" fill="#D8403F" />
<rect x="1006" y="207" width="11" height="200" fill="#D8403F" />
<rect x="1246" y="207" width="21" height="15" fill="#D8403F" />
<rect x="323" y="208" width="5" height="153" fill="#D8403F" />
<rect x="523" y="208" width="5" height="45" fill="#D8403F" />
<rect x="3" y="211" width="1" height="26" fill="#D8403F" />
<rect x="808" y="212" width="17" height="4" fill="#D8403F" />
<rect x="1001" y="212" width="5" height="189" fill="#D8403F" />
<rect x="1170" y="212" width="5" height="219" fill="#D8403F" />
<rect x="1279" y="212" width="5" height="4" fill="#D8403F" />
<rect x="1371" y="212" width="5" height="153" fill="#D8403F" />
<rect x="808" y="216" width="12" height="11" fill="#D8403F" />
<rect x="985" y="216" width="16" height="165" fill="#D8403F" />
<rect x="1376" y="216" width="7" height="159" fill="#D8403F" />
<rect x="318" y="219" width="5" height="132" fill="#D8403F" />
<rect x="528" y="219" width="6" height="24" fill="#D8403F" />
<rect x="888" y="222" width="5" height="204" fill="#D8403F" />
<rect x="975" y="222" width="10" height="148" fill="#D8403F" />
<rect x="1246" y="222" width="16" height="11" fill="#D8403F" />
<rect x="626" y="227" width="23" height="9" fill="#D8403F" />
<rect x="808" y="227" width="5" height="5" fill="#D8403F" />
<rect x="1165" y="228" width="5" height="203" fill="#D8403F" />
<rect x="1383" y="228" width="5" height="162" fill="#D8403F" />
<rect x="88" y="233" width="5" height="94" fill="#D8403F" />
<rect x="1246" y="233" width="11" height="9" fill="#D8403F" />
<rect x="1388" y="233" width="5" height="168" fill="#D8403F" />
<rect x="632" y="236" width="17" height="6" fill="#D8403F" />
<rect x="796" y="236" width="7" height="12" fill="#D8403F" />
<rect x="93" y="238" width="5" height="89" fill="#D8403F" />
<rect x="637" y="242" width="12" height="6" fill="#D8403F" />
<rect x="1082" y="242" width="6" height="11" fill="#D8403F" />
<rect x="1159" y="242" width="6" height="189" fill="#D8403F" />
<rect x="1246" y="242" width="6" height="11" fill="#D8403F" />
<rect x="1393" y="242" width="5" height="169" fill="#D8403F" />
<rect x="98" y="243" width="6" height="88" fill="#D8403F" />
<rect x="312" y="243" width="6" height="88" fill="#D8403F" />
<rect x="104" y="247" width="5" height="84" fill="#D8403F" />
<rect x="644" y="248" width="5" height="5" fill="#D8403F" />
<rect x="109" y="253" width="10" height="83" fill="#D8403F" />
<rect x="882" y="253" width="6" height="173" fill="#D8403F" />
<rect x="1398" y="253" width="7" height="173" fill="#D8403F" />
<rect x="11" y="255" width="1" height="3" fill="#D8403F" />
<rect x="1072" y="257" width="5" height="6" fill="#D8403F" />
<rect x="1154" y="257" width="5" height="174" fill="#D8403F" />
<rect x="119" y="258" width="16" height="78" fill="#D8403F" />
<rect x="654" y="258" width="6" height="4" fill="#D8403F" />
<rect x="135" y="263" width="26" height="78" fill="#D8403F" />
<rect x="1405" y="263" width="4" height="174" fill="#D8403F" />
<rect x="161" y="268" width="58" height="73" fill="#D8403F" />
<rect x="371" y="268" width="21" height="112" fill="#D8403F" />
<rect x="1061" y="268" width="6" height="6" fill="#D8403F" />
<rect x="1236" y="268" width="5" height="15" fill="#D8403F" />
<rect x="1409" y="268" width="5" height="174" fill="#D8403F" />
<rect x="219" y="272" width="10" height="64" fill="#D8403F" />
<rect x="1039" y="274" width="17" height="5" fill="#D8403F" />
<rect x="1149" y="274" width="5" height="157" fill="#D8403F" />
<rect x="229" y="277" width="5" height="54" fill="#D8403F" />
<rect x="654" y="279" width="6" height="138" fill="#D8403F" />
<rect x="1039" y="279" width="12" height="4" fill="#D8403F" />
<rect x="1301" y="279" width="16" height="81" fill="#D8403F" />
<rect x="1414" y="279" width="6" height="168" fill="#D8403F" />
<rect x="234" y="282" width="5" height="45" fill="#D8403F" />
<rect x="649" y="283" width="5" height="134" fill="#D8403F" />
<rect x="876" y="283" width="6" height="138" fill="#D8403F" />
<rect x="1257" y="283" width="44" height="77" fill="#D8403F" />
<rect x="307" y="288" width="5" height="34" fill="#D8403F" />
<rect x="1144" y="288" width="5" height="138" fill="#D8403F" />
<rect x="1236" y="288" width="21" height="77" fill="#D8403F" />
<rect x="1420" y="288" width="5" height="163" fill="#D8403F" />
<rect x="239" y="292" width="6" height="25" fill="#D8403F" />
<rect x="644" y="294" width="5" height="123" fill="#D8403F" />
<rect x="637" y="299" width="7" height="111" fill="#D8403F" />
<rect x="1425" y="300" width="5" height="157" fill="#D8403F" />
<rect x="871" y="304" width="5" height="117" fill="#D8403F" />
<rect x="1023" y="304" width="5" height="122" fill="#D8403F" />
<rect x="1138" y="304" width="6" height="122" fill="#D8403F" />
<rect x="1430" y="304" width="7" height="158" fill="#D8403F" />
<rect x="392" y="307" width="26" height="79" fill="#D8403F" />
<rect x="632" y="309" width="5" height="101" fill="#D8403F" />
<rect x="1028" y="309" width="6" height="122" fill="#D8403F" />
<rect x="418" y="311" width="21" height="80" fill="#D8403F" />
<rect x="1034" y="314" width="5" height="123" fill="#D8403F" />
<rect x="1437" y="314" width="5" height="148" fill="#D8403F" />
<rect x="439" y="317" width="16" height="78" fill="#D8403F" />
<rect x="1039" y="319" width="5" height="123" fill="#D8403F" />
<rect x="626" y="320" width="6" height="86" fill="#D8403F" />
<rect x="82" y="322" width="6" height="5" fill="#D8403F" />
<rect x="455" y="322" width="26" height="78" fill="#D8403F" />
<rect x="866" y="323" width="5" height="93" fill="#D8403F" />
<rect x="1044" y="323" width="7" height="119" fill="#D8403F" />
<rect x="1133" y="323" width="5" height="98" fill="#D8403F" />
<rect x="1442" y="323" width="5" height="145" fill="#D8403F" />
<rect x="481" y="327" width="10" height="68" fill="#D8403F" />
<rect x="621" y="329" width="5" height="72" fill="#D8403F" />
<rect x="1051" y="330" width="5" height="117" fill="#D8403F" />
<rect x="491" y="331" width="6" height="64" fill="#D8403F" />
<rect x="1056" y="335" width="5" height="112" fill="#D8403F" />
<rect x="1447" y="335" width="5" height="133" fill="#D8403F" />
<rect x="497" y="336" width="5" height="55" fill="#D8403F" />
<rect x="502" y="341" width="5" height="45" fill="#D8403F" />
<rect x="860" y="344" width="6" height="67" fill="#D8403F" />
<rect x="930" y="344" width="22" height="5" fill="#D8403F" />
<rect x="958" y="344" width="11" height="11" fill="#D8403F" />
<rect x="1061" y="344" width="6" height="103" fill="#D8403F" />
<rect x="1127" y="344" width="6" height="72" fill="#D8403F" />
<rect x="1452" y="344" width="6" height="124" fill="#D8403F" />
<rect x="615" y="345" width="6" height="46" fill="#D8403F" />
<rect x="930" y="349" width="17" height="16" fill="#D8403F" />
<rect x="1067" y="349" width="5" height="98" fill="#D8403F" />
<rect x="507" y="351" width="6" height="24" fill="#D8403F" />
<rect x="963" y="355" width="6" height="5" fill="#D8403F" />
<rect x="1072" y="355" width="5" height="92" fill="#D8403F" />
<rect x="1458" y="355" width="6" height="113" fill="#D8403F" />
<rect x="854" y="360" width="6" height="41" fill="#D8403F" />
<rect x="1077" y="360" width="5" height="82" fill="#D8403F" />
<rect x="1257" y="360" width="22" height="5" fill="#D8403F" />
<rect x="930" y="365" width="12" height="20" fill="#D8403F" />
<rect x="1082" y="365" width="6" height="77" fill="#D8403F" />
<rect x="1121" y="365" width="6" height="42" fill="#D8403F" />
<rect x="1464" y="365" width="5" height="103" fill="#D8403F" />
<rect x="980" y="370" width="5" height="5" fill="#D8403F" />
<rect x="1088" y="370" width="5" height="67" fill="#D8403F" />
<rect x="360" y="375" width="11" height="5" fill="#D8403F" />
<rect x="1469" y="375" width="6" height="93" fill="#D8403F" />
<rect x="990" y="381" width="11" height="9" fill="#D8403F" />
<rect x="1093" y="381" width="5" height="50" fill="#D8403F" />
<rect x="930" y="385" width="5" height="16" fill="#D8403F" />
<rect x="1475" y="385" width="5" height="77" fill="#D8403F" />
<rect x="413" y="386" width="5" height="5" fill="#D8403F" />
<rect x="996" y="390" width="5" height="5" fill="#D8403F" />
<rect x="1098" y="390" width="7" height="31" fill="#D8403F" />
<rect x="434" y="391" width="5" height="4" fill="#D8403F" />
<rect x="481" y="395" width="5" height="5" fill="#D8403F" />
<rect x="1480" y="395" width="5" height="67" fill="#D8403F" />
<rect x="1485" y="401" width="5" height="56" fill="#D8403F" />
<rect x="1012" y="407" width="5" height="4" fill="#D8403F" />
<rect x="1490" y="407" width="6" height="44" fill="#D8403F" />
<rect x="920" y="411" width="5" height="5" fill="#D8403F" />
<rect x="1496" y="416" width="4" height="26" fill="#D8403F" />
</svg>