<svg version="1.0" xmlns="http://www.w3.org/2000/svg" width="1024.000000ptpx" height="1024.000000ptpx" viewBox="0 0 1024.000000 1024.000000" preserveAspectRatio="xMidYMid meet" transform="rotate(0) scale(1, 1)">

<g transform="translate(0.000000,1024.000000) scale(0.100000,-0.100000)" fill="#da4140" stroke="none">
<path d="M4921 8709 c-204 -22 -413 -82 -608 -174 -446 -212 -817 -638 -953&#10;-1096 -58 -196 -75 -331 -74 -574 2 -279 37 -459 149 -760 70 -191 106 -305&#10;130 -415 23 -105 31 -380 15 -488 -51 -343 -260 -569 -598 -648 -101 -24 -324&#10;-15 -412 16 -140 49 -247 137 -295 242 -90 198 -25 440 142 527 12 6 56 18 99&#10;26 87 17 138 49 160 101 18 43 18 96 0 139 -16 37 -32 49 -21 15 3 -11 2 -20&#10;-4 -20 -5 0 -8 13 -6 30 3 24 -2 34 -28 54 -61 45 -123 61 -237 60 -171 0&#10;-308 -55 -433 -173 -173 -163 -259 -376 -259 -636 0 -190 35 -332 119 -480&#10;270 -475 866 -694 1488 -548 198 46 428 150 568 254 37 28 70 49 72 47 3 -2&#10;-16 -45 -41 -94 -209 -407 -464 -665 -869 -878 -176 -93 -293 -175 -370 -258&#10;-61 -67 -86 -106 -47 -77 15 11 15 11 4 -1 -7 -8 -18 -15 -25 -15 -7 0 -29&#10;-31 -49 -70 -104 -197 -106 -447 -4 -660 120 -254 446 -468 649 -426 71 15&#10;120 58 136 119 25 92 -16 160 -130 217 -128 65 -194 164 -194 291 1 175 105&#10;269 470 424 457 194 824 497 1093 906 48 72 96 147 106 165 12 21 21 28 22 19&#10;2 -8 8 -186 14 -395 21 -714 46 -928 139 -1184 101 -275 309 -521 546 -643&#10;140 -72 208 -90 365 -95 226 -9 374 37 501 154 117 109 139 222 58 302 -50 50&#10;-96 57 -221 31 -194 -40 -315 -13 -417 95 -135 143 -172 371 -152 933 20 541&#10;31 795 35 799 2 3 16 -17 31 -44 96 -169 243 -360 395 -513 236 -237 463 -388&#10;822 -544 178 -77 263 -120 319 -161 122 -91 162 -250 95 -383 -35 -69 -81&#10;-113 -164 -157 -86 -45 -117 -77 -133 -136 -11 -40 -10 -53 5 -93 35 -92 139&#10;-133 264 -102 234 56 447 250 545 496 99 248 40 551 -144 745 -85 89 -168 147&#10;-371 258 -86 47 -175 98 -199 113 -260 164 -507 445 -664 754 -56 112 -56 119&#10;6 72 178 -134 436 -243 684 -290 139 -26 427 -23 565 7 347 74 613 245 784&#10;504 112 169 156 320 156 534 1 179 -18 269 -87 408 -108 218 -299 370 -513&#10;405 -256 43 -452 -92 -385 -266 20 -52 82 -104 125 -104 16 0 57 -9 92 -20 86&#10;-26 147 -80 190 -167 28 -57 33 -79 36 -158 4 -76 0 -105 -17 -157 -70 -210&#10;-266 -328 -546 -328 -376 0 -672 223 -766 575 -27 103 -36 304 -19 446 16 140&#10;55 285 140 524 104 294 143 471 156 715 32 627 -249 1213 -758 1577 -365 263&#10;-817 380 -1277 332z m-128 -46 c-7 -2 -19 -2 -25 0 -7 3 -2 5 12 5 14 0 19 -2&#10;13 -5z m-60 -10 c-7 -2 -19 -2 -25 0 -7 3 -2 5 12 5 14 0 19 -2 13 -5z m804 1&#10;c-3 -3 -12 -4 -19 -1 -8 3 -5 6 6 6 11 1 17 -2 13 -5z m-1057 -74 c-8 -5 -19&#10;-10 -25 -10 -5 0 -3 5 5 10 8 5 20 10 25 10 6 0 3 -5 -5 -10z m-180 -80 c-8&#10;-5 -19 -10 -25 -10 -5 0 -3 5 5 10 8 5 20 10 25 10 6 0 3 -5 -5 -10z m-140&#10;-74 c0 -2 -7 -7 -16 -10 -8 -3 -12 -2 -9 4 6 10 25 14 25 6z m1956 -11 c12 -9&#10;14 -14 6 -15 -7 0 -20 7 -28 15 -20 19 -4 20 22 0z m224 -170 c11 -13 10 -14&#10;-4 -9 -9 3 -16 10 -16 15 0 13 6 11 20 -6z m85 -75 c3 -5 -1 -10 -9 -10 -9 0&#10;-16 5 -16 10 0 6 4 10 9 10 6 0 13 -4 16 -10z m249 -326 c7 -19 2 -18 -19 6&#10;-16 17 -16 20 -3 15 9 -4 19 -13 22 -21z m224 -559 c-3 -3 -9 2 -12 12 -6 14&#10;-5 15 5 6 7 -7 10 -15 7 -18z m-3581 -627 c-3 -8 -6 -5 -6 6 -1 11 2 17 5 13&#10;3 -3 4 -12 1 -19z m1107 -752 c152 -64 193 -269 77 -383 -52 -51 -104 -73&#10;-180 -73 -107 0 -188 60 -227 167 -29 82 -5 173 63 239 72 70 174 89 267 50z&#10;m1546 13 c95 -21 161 -90 182 -190 29 -142 -83 -278 -231 -279 -74 0 -124 17&#10;-172 59 -54 46 -79 100 -79 176 0 105 56 187 153 224 60 23 84 25 147 10z&#10;m-3760 -224 c-19 -7 -42 -13 -50 -13 -8 0 1 6 20 13 19 7 42 13 50 13 8 0 -1&#10;-6 -20 -13z m370 -6 c13 -7 13 -8 0 -8 -8 0 -26 6 -40 15 l-25 15 25 -7 c14&#10;-3 32 -10 40 -15z m5471 6 l34 -14 -35 4 c-19 2 -38 4 -42 4 -11 1 -10 21 1&#10;21 5 0 24 -7 42 -15z m-1404 -87 c-3 -7 -5 -2 -5 12 0 14 2 19 5 13 2 -7 2&#10;-19 0 -25z m944 -1 c-10 -9 -11 -8 -5 6 3 10 9 15 12 12 3 -3 0 -11 -7 -18z&#10;m670 -34 c13 -16 12 -17 -3 -4 -10 7 -18 15 -18 17 0 8 8 3 21 -13z m-684 -45&#10;c-3 -8 -6 -5 -6 6 -1 11 2 17 5 13 3 -3 4 -12 1 -19z m764 -35 c13 -16 12 -17&#10;-3 -4 -10 7 -18 15 -18 17 0 8 8 3 21 -13z m-5736 -83 c-3 -5 -12 -10 -18 -10&#10;-7 0 -6 4 3 10 19 12 23 12 15 0z m5894 -203 c1 -5 -3 -5 -9 -2 -5 3 -10 16&#10;-9 28 0 21 1 21 9 2 5 -11 9 -24 9 -28z m-1841 -92 c-3 -3 -9 2 -12 12 -6 14&#10;-5 15 5 6 7 -7 10 -15 7 -18z m336 -474 c-2 -3 -12 3 -22 13 -16 17 -16 18 5&#10;5 12 -7 20 -15 17 -18z m-3074 -536 c0 -8 -4 -15 -10 -15 -5 0 -7 7 -4 15 4 8&#10;8 15 10 15 2 0 4 -7 4 -15z m190 -909 c0 -2 -8 -10 -17 -17 -16 -13 -17 -12&#10;-4 4 13 16 21 21 21 13z m-1321 -129 c-2 -1 -13 -9 -24 -17 -19 -14 -19 -14&#10;-6 3 7 9 18 17 24 17 6 0 8 -1 6 -3z m4978 -594 c-2 -16 -4 -5 -4 22 0 28 2&#10;40 4 28 2 -13 2 -35 0 -50z m-4542 -451 c-3 -3 -11 0 -18 7 -9 10 -8 11 6 5&#10;10 -3 15 -9 12 -12z m2993 11 c-10 -2 -28 -2 -40 0 -13 2 -5 4 17 4 22 1 32&#10;-1 23 -4z"/>
</g>
</svg>